<svg enable-background="new 0 0 662 157" viewBox="0 0 662 157" xmlns="http://www.w3.org/2000/svg"><path d="m112.7 85.5c-1.1 0-2.1 0-3 0-8.1 0-16.3 0-24.4 0-.6 0-.9.2-1.1.8-2.3 6-4.6 12-6.9 17.9-2.3 6.1-4.7 12.2-7.1 18.2-1.1 2.7-3.2 4.2-6 4.5-2.1.2-4-1.4-3-4.3.6-1.9 1.4-3.7 2.1-5.6 1.7-4.5 3.4-8.9 5.1-13.4 1.4-3.8 2.9-7.5 4.3-11.3.9-2.3 1.8-4.6 2.7-7-1.6 0-3.1 0-4.6 0-7.7 0-15.5 0-23.2 0-.4 0-.6.1-.8.5-2.8 7.3-5.6 14.6-8.5 22-1.9 4.8-3.6 9.6-5.6 14.4-1 2.6-3 4.2-5.8 4.5-2.6.3-4.1-1.7-3.2-4.1 1.5-4 3-7.9 4.5-11.9 2.4-6.2 4.8-12.5 7.2-18.7 2.1-5.5 4.3-11 6.4-16.6 2.3-5.9 4.5-11.8 6.8-17.7 2.8-7.3 5.7-14.7 8.5-22 .7-2 1.7-3.7 3.5-4.9 1.3-.8 2.6-1.3 4.1-1s2.5 1.7 2.2 3.2c-.4 1.6-1 3.2-1.6 4.7-2.2 5.7-4.3 11.3-6.5 17-2.3 6-4.6 11.9-6.9 17.9-.5 1.2-.9 2.4-1.4 3.7h5.2 15.8 6.8c.2 0 .6-.2.6-.4 2.1-5.3 4.1-10.6 6.1-15.9 1.9-4.9 3.8-9.9 5.7-14.8 1.4-3.6 2.8-7.3 4.2-10.9 1.1-2.6 3.1-4.2 5.9-4.5 2.7-.3 3.9 1.8 3.1 4.1-1.2 3.4-2.6 6.7-3.8 10.1-1.6 4.3-3.3 8.6-4.9 12.9-1.7 4.4-3.4 8.9-5.1 13.3-.7 1.9-1.4 3.7-2.2 5.6-.1.2-.1.3-.2.6h3 18 6.5c.6 0 .8-.2 1-.7 1.9-4.9 3.8-9.9 5.7-14.8 1.6-4.2 3.3-8.4 4.9-12.7 1.7-4.4 3.4-8.9 5.1-13.3.8-2.2 2.2-3.8 4.4-4.7.7-.3 1.5-.4 2.2-.4 2.2 0 3.4 1.7 2.8 4-.4 1.4-1 2.7-1.5 4.1-2.2 5.6-4.3 11.3-6.5 16.9-2.3 6-4.6 11.9-6.9 17.9-.5 1.2-.9 2.4-1.4 3.6h28.4c1.1-3 2.3-6 3.4-8.9 2.2-5.6 4.3-11.2 6.5-16.9 1.9-4.9 3.7-9.7 5.6-14.6.6-1.6 1.2-3.3 2.7-4.4 1.4-1.1 2.8-1.8 4.7-1.7 2.2.2 3 2.3 2.4 4.1-1 2.7-2 5.4-3.1 8.1-1.5 3.8-2.9 7.6-4.4 11.4-2.2 5.7-4.4 11.3-6.6 17-1.2 3.1-2.3 6.1-3.5 9.2-.8 2.2-2 4.1-4.3 5.1-.9.4-1.9.7-2.9.7-6.7.1-13.5 0-20.2 0-3.9 0-7.8 0-11.6 0-.4 0-.5.1-.7.5-3.1 8.1-6.3 16.3-9.4 24.4-1.5 4-3 8-4.7 12-1 2.5-3 4.1-5.7 4.5-2.6.4-4.2-1.6-3.3-4.1 1.5-4 3-7.9 4.5-11.9 2.4-6.2 4.8-12.5 7.2-18.7.8-2 1.6-4.1 2.4-6.1.2 0 .2-.2.3-.5z" fill="#c9071b"/><g fill="#fff"><path d="m68.1 12.1v-1.4c.6-.2 1.2-.5 1.7-.8.5-.4.9-.8 1.3-1.2h.2l1.2.7-5.4 14.9h-2.1l4.6-12.5z"/><path d="m24.1 146.5-.7 1.9h-5.6l1.7-4.8c.1-.3.2-.5.3-.7s.2-.3.4-.5.4-.4.8-.6l2.8-2c.2-.2.4-.3.5-.4s.2-.2.3-.3.1-.2.2-.2c0-.1.1-.2.1-.3l1.1-2.9c.2-.6 0-.9-.6-.9h-.1c-.6 0-1 .3-1.2.9l-.6 1.6h-2.1l.6-1.7c.6-1.8 1.8-2.7 3.5-2.7h1.1c1.7 0 2.2.9 1.5 2.7l-1.4 3.7c-.1.3-.2.5-.4.8-.2.2-.5.5-.9.8l-3.1 2.2c-.4.3-.6.5-.7.6s-.1.2-.2.3c0 .1-.1.2-.2.4l-.8 2.3h3.7z"/><path d="m61.1 144.8h-1.2l-1.3 3.6h-2l1.3-3.6h-3.6l.2-1.8 7.7-10.2h2.1l-3.7 10.2h1.2zm-.2-7.8-4.3 6h1.9z"/><path d="m98.9 137.2.5-1.4c.3-.8.1-1.1-.5-1.1h-.3c-.6 0-.9.3-1.2.9l-1.7 4.7 1.6-.9h.6c1.6 0 2.1.9 1.4 2.7l-1.3 3.6c-.6 1.8-1.8 2.6-3.3 2.6h-1.6c-1.6 0-2.1-.9-1.4-2.6l3.7-10.3c.6-1.8 1.8-2.7 3.4-2.7h1.5c1.6 0 2.1.9 1.4 2.7l-.6 1.7h-2.2zm-3.6 4.2-1.5 4.2c-.2.6 0 .9.6.9h.4c.6 0 1-.3 1.3-.9l1.1-3.1c.3-.8.1-1.1-.5-1.1z"/><path d="m108.1 16.2c1 .3 1.3.9.9 2l-1.2 3.4c-.6 1.8-1.8 2.7-3.5 2.7h-1.4c-1.7 0-2.2-.9-1.5-2.7l.4-1h2.1l-.3.8c-.2.6-.1.9.5.9h.5c.6 0 1-.3 1.3-.9l1.2-3.2c.2-.7 0-1-.8-1h-.6l.6-1.8h.3c.8 0 1.3-.3 1.6-1l1.1-3c.2-.6 0-.9-.6-.9h-.3c-.6 0-.9.3-1.2.9l-.6 1.6h-2.1l.6-1.7c.6-1.8 1.8-2.7 3.5-2.7h1.2c1.7 0 2.2.9 1.5 2.7l-1.1 3.1c-.4 1-1.1 1.6-2.1 1.8z"/><path d="m137.6 20.6h2.1l-.3.8c-.2.6-.1.9.5.9h.2c.6 0 1-.3 1.3-.9l1.3-3.6c.2-.7.1-1-.5-1h-3.1l3-8.2h5.9l-.7 1.9h-3.9l-1.6 4.4h1.7c1.7 0 2.2.9 1.5 2.8l-1.4 3.8c-.7 1.8-1.8 2.8-3.5 2.8h-1.2c-1.7 0-2.2-.9-1.5-2.7z"/><path d="m185.9 8.6h4.1c1.6 0 2.1.9 1.4 2.7l-1.4 3.8c-.5 1.4-1.2 2.2-2.2 2.6l-.9 6.5h-2l.9-6.3h-1.3l-2.3 6.3h-2.1zm-.7 7.6h1.4c.6 0 1.1-.4 1.3-1.1l1.2-3.4c.3-.8.1-1.1-.5-1.1h-1.4z"/></g><g enable-background="new"><g fill="#fff"><path d="m192.4 125.1h-17.9l30.3-83.3h17.7c8.1 0 11.7 2.7 12.3 8.2.6 4.5-4.8 20.8-8.8 31.6-6.2 16.9-11.4 30.9-16.2 36.1-3.6 4.2-8.4 7.4-17.4 7.4zm22.7-43.4c1.7-4.6 7.3-21.3 7.8-24.3.6-4-1-5.7-4.4-5.7h-6.6l-23.3 64.3h6.7c3.3 0 6.3-1.5 8.1-4.6 3.1-5.3 6.4-15.2 11.7-29.7z"/><path d="m276.6 49.3c1.1 6.9-2.6 18.1-8.3 33.7-6 16.4-10.6 27.8-16.6 34.7-4.7 5.5-10.3 8.2-18.2 8.2s-11.4-2.7-12.2-8.1c-.9-6.9 2.7-18.3 8.6-34.5 5.7-15.7 10.2-27.1 16.5-34.1 4.6-5.1 10-7.8 17.9-7.8 7.6 0 11.3 2.7 12.3 7.9zm-32.2 63.2c3.4-4.2 6.7-12.7 12.7-29.1 5.8-15.9 9.2-24.7 8.4-28.9-.4-2.1-2.2-2.9-4.9-2.9s-4.8.9-6.7 3c-4 4.3-7.2 13.1-13 29.1-5.9 16.3-8.8 24.7-8.2 28.8.2 2.5 1.8 3.4 4.5 3.4 2.9.1 5.1-.9 7.2-3.4z"/><path d="m276.9 125.1h-17.9l30.3-83.3h17.7c8.1 0 11.7 2.7 12.3 8.2.6 4.5-4.8 20.8-8.8 31.6-6.2 16.9-11.4 30.9-16.2 36.1-3.6 4.2-8.4 7.4-17.4 7.4zm22.7-43.4c1.7-4.6 7.3-21.3 7.8-24.3.6-4-1-5.7-4.4-5.7h-6.6l-23.3 64.3h6.7c3.3 0 6.3-1.5 8.1-4.6 3.1-5.3 6.4-15.2 11.7-29.7z"/><path d="m328.2 125.1.9-4.3c-2.8 2.8-7.5 5-12.8 5-8.2 0-12.3-4.3-11.2-12.2 1-7.1 5.1-18.9 9.2-30.1 3.2-8.8 8.4-22.4 12.7-29.5 3.9-6.8 11-12.8 21.5-12.8 11 0 13.3 5.6 12.4 11.9-.7 4.6-4.3 14.7-4.7 15.9h-10.7c.3-.7 2.5-6.8 3.5-12 .7-3.4-.8-5.3-4-5.3s-6.6 2.1-8.5 5.8c-4.1 8.1-8.3 19.3-10.8 26.2-3.2 8.7-7.4 21.5-8.4 26.3-.8 4 .7 6.2 4.4 6.2 4.3 0 7.8-2.5 9.8-7 .7-2 7.3-20 7.3-20h-9.2l3.5-9.5h19.5s-7.6 20.9-9.5 26.1c-3.5 9.6-6.8 19.3-6.9 19.4h-8z"/><path d="m341.8 125.1 30.3-83.3h31l-3.8 10.4h-20.2l-9.4 25.8h18.7l-3.8 10.3h-18.7l-9.6 26.3h20.5l-3.8 10.4h-31.2z"/></g><g fill="#c9071b"><path d="m405.5 125.1.9-4.3c-2.8 2.8-7.5 5-12.8 5-8.2 0-12.3-4.3-11.2-12.2 1-7.1 5.1-18.9 9.2-30.1 3.2-8.8 8.4-22.4 12.7-29.5 3.9-6.8 11-12.8 21.5-12.8 11 0 13.3 5.6 12.4 11.9-.7 4.6-4.3 14.7-4.7 15.9h-10.7c.3-.7 2.5-6.8 3.5-12 .7-3.4-.8-5.3-4-5.3s-6.6 2.1-8.5 5.8c-4.1 8.1-8.3 19.3-10.8 26.2-3.2 8.7-7.4 21.5-8.4 26.3-.8 4 .7 6.2 4.4 6.2 4.3 0 7.8-2.5 9.8-7 .7-2 7.3-20 7.3-20h-9.2l3.5-9.5h19.5s-7.6 20.9-9.5 26.1c-3.5 9.6-6.8 19.3-6.9 19.4h-8z"/><path d="m427 125.1h-10.9l44-83.3h14.8l-18.3 83.3h-11l4.9-20h-13.5zm32.3-58.6c.6-2.6 3.6-12.9 3.6-12.9s-4.5 10.3-5.8 12.9c-.9 1.9-15.3 29-15.3 29h10.8c.1 0 6.2-27.1 6.7-29z"/><path d="m510.3 79.1c-2.3 3.1-5.7 5.6-8 6.3l-4.7 39.8h-11.3l4.9-36.7h-6.9l-13.3 36.6h-10.5l30.3-83.3h20c6.5 0 9.6 3 9.6 8.6 0 3.2-.9 7.9-3.4 14.7-2.4 6.7-4.5 11-6.7 14zm-1.8-22.1c.6-2.8-.4-4.8-3.4-4.8h-7.5s-9 24.8-9.6 26.5c.1 0 7.4 0 8.1-.1 2.3-.2 4-1.5 5-2.9 1.4-1.8 3.5-6.5 4.5-9.3 1.4-3.7 2.8-8.4 2.9-9.4z"/><path d="m509.3 125.1h-10.9l44-83.3h14.8l-18.3 83.3h-11l4.9-20h-13.6zm32.3-58.6c.6-2.6 3.6-12.9 3.6-12.9s-4.5 10.3-5.8 12.9c-.9 1.9-15.3 29-15.3 29h10.9s6.1-27.1 6.6-29z"/><path d="m569.8 125.1.9-4.3c-2.8 2.8-7.5 5-12.8 5-8.2 0-12.3-4.3-11.2-12.2 1-7.1 5.1-18.9 9.2-30.1 3.2-8.8 8.4-22.4 12.7-29.5 3.9-6.8 11-12.8 21.5-12.8 11 0 13.3 5.6 12.4 11.9-.7 4.6-4.3 14.7-4.7 15.9h-10.8c.3-.7 2.5-6.8 3.5-12 .7-3.4-.8-5.3-4-5.3s-6.6 2.1-8.5 5.8c-4.1 8.1-8.3 19.3-10.8 26.2-3.2 8.7-7.4 21.5-8.4 26.3-.8 4 .7 6.2 4.4 6.2 4.3 0 7.8-2.5 9.8-7 .7-2 7.3-20 7.3-20h-9.2l3.5-9.5h19.5s-7.6 20.9-9.5 26.1c-3.5 9.6-6.8 19.3-6.9 19.4h-7.9z"/><path d="m583.5 125.1 30.3-83.3h31l-3.8 10.5h-20.2l-9.4 25.8h18.6l-3.8 10.3h-18.7l-9.6 26.3h20.5l-3.8 10.4z"/></g></g></svg>